<svg id="Layer_1" data-name="Layer 1" xmlns="http://www.w3.org/2000/svg" viewBox="0 0 250 301.6"><defs><style>.cls-1{fill:#971cd1;}</style></defs><title>Logo</title><path class="cls-1" d="M358.68,217.6C357.85,216.33,394,179,325,179c-18.78,0-32.85,37.33-33.68,38.6C261.25,263.28,200,280.64,200,338a125,125,0,0,0,91.32,120.4c-.07.54,1.78,8.9,5,11.74,2.35,2,5.43-1.67,9,.34,2.15,1.2,4.48,8.3,7,9.2,3.89,1.41,8.16-3.68,12.63-3.68,3.53,0,6.94,5.43,10.13,4.49,3.59-1.05,6.92-8.56,9.87-10.24,3.28-1.86,6.11,2.06,8.32.16,3.46-3,5.44-11.46,5.36-12A125,125,0,0,0,450,338C450,280.64,388.75,263.28,358.68,217.6ZM400,409H366V329l-39,28-39-28v80H254V286h34l39,28,39-28h34Z" transform="translate(-200 -179)"/></svg>