<?xml version="1.0" encoding="UTF-8" standalone="no"?>
<!-- Created with Inkscape (http://www.inkscape.org/) -->

<svg
   width="33.866665mm"
   height="33.866665mm"
   viewBox="0 0 33.866665 33.866665"
   version="1.1"
   id="svg1"
   xml:space="preserve"
   inkscape:version="1.4.2 (f4327f4, 2025-05-13)"
   sodipodi:docname="logo.svg"
   xmlns:inkscape="http://www.inkscape.org/namespaces/inkscape"
   xmlns:sodipodi="http://sodipodi.sourceforge.net/DTD/sodipodi-0.dtd"
   xmlns="http://www.w3.org/2000/svg"
   xmlns:svg="http://www.w3.org/2000/svg"><sodipodi:namedview
     id="namedview1"
     pagecolor="#ffffff"
     bordercolor="#000000"
     borderopacity="0.25"
     inkscape:showpageshadow="2"
     inkscape:pageopacity="0.0"
     inkscape:pagecheckerboard="0"
     inkscape:deskcolor="#d1d1d1"
     inkscape:document-units="mm"
     inkscape:zoom="5.9918768"
     inkscape:cx="-2.0027114"
     inkscape:cy="69.010097"
     inkscape:window-width="3440"
     inkscape:window-height="1369"
     inkscape:window-x="-8"
     inkscape:window-y="-8"
     inkscape:window-maximized="1"
     inkscape:current-layer="layer1" /><defs
     id="defs1" /><g
     inkscape:label="Layer 1"
     inkscape:groupmode="layer"
     id="layer1"><path
       style="fill:#000000;stroke-width:0.155438"
       d="m 15.535126,32.172246 c 0,-0.08616 -0.02313,-0.187617 -0.05141,-0.225472 -0.07597,-0.101725 -0.236822,-0.0078 -0.338009,0.197373 l -0.08097,0.164181 -0.02421,-0.14534 c -0.04859,-0.291656 -0.145373,-0.319611 -0.351156,-0.101422 -0.07466,0.07916 -0.147291,0.143942 -0.161392,0.143942 -0.0141,0 -0.06425,-0.08731 -0.111467,-0.194019 l -0.08582,-0.194017 -0.158621,0.178744 -0.158621,0.178744 v -0.185855 c 0,-0.102216 0.04715,-0.367337 0.104788,-0.589148 0.05764,-0.221812 0.09927,-0.477305 0.09254,-0.567765 l -0.01223,-0.164471 -0.287883,-0.004 c -0.178186,-0.0025 -0.334897,-0.0291 -0.411262,-0.06986 -0.06786,-0.03622 -0.447248,-0.160501 -0.843086,-0.276178 C 8.5548943,29.119153 5.7990721,26.855317 4.8006542,23.86451 4.5923914,23.24065 4.5127474,22.782196 4.4839594,22.041524 4.4429744,20.98705 4.595961,20.095154 4.9823222,19.136116 5.5970812,17.61014 6.4323508,16.454982 8.0961973,14.8297 c 1.2212053,-1.192901 3.1242077,-2.683663 5.0741717,-3.974976 0.469805,-0.311116 0.843087,-0.677676 0.843087,-0.827905 0,-0.054398 -0.07425,-0.2137804 -0.165001,-0.3541883 -0.326663,-0.5054114 -0.534739,-0.985173 -0.637369,-1.469588 -0.0692,-0.3265705 -0.08092,-0.7965706 -0.01989,-0.7965706 0.02276,0 0.122105,0.1249154 0.220746,0.2776006 0.09864,0.1526814 0.228068,0.3224686 0.287613,0.3773048 l 0.108266,0.099708 V 8.0069247 c 0,-0.2237197 0.08921,-0.1799281 0.280865,0.1378771 0.279547,0.4635389 0.293093,0.4157393 0.191767,-0.6766707 -0.135071,-1.4562253 -0.03435,-2.7997032 0.271493,-3.6211637 0.158263,-0.4250833 0.355338,-0.6765193 0.530251,-0.6765193 0.09836,0 0.11947,0.033078 0.249344,0.3906684 0.07804,0.2148676 0.155769,0.3906818 0.172734,0.3906985 0.01697,1.65e-5 0.03084,-0.071677 0.03084,-0.1593204 0,-0.2578687 0.163683,-1.1463794 0.267978,-1.4546491 0.109274,-0.3229998 0.334117,-0.7184645 0.441447,-0.7764529 0.04584,-0.024764 0.09985,-0.023966 0.148734,0.00219 0.118047,0.063179 0.467114,0.4600591 0.754096,0.8573958 0.260754,0.3610246 0.690808,1.1497738 0.690808,1.2669896 0,0.09635 0.06957,0.032102 0.101057,-0.093319 0.01535,-0.061165 0.05486,-0.1757024 0.0878,-0.2545288 l 0.05988,-0.1433207 0.166366,0.1616065 c 0.407223,0.3955703 0.799047,1.0261934 1.047141,1.6853182 0.207547,0.5513967 0.524487,2.4273168 0.529433,3.1336125 0.0034,0.4847447 0.03538,0.5171488 0.289902,0.2936774 l 0.145873,-0.128079 0.04511,0.1293948 c 0.03857,0.110648 0.05436,0.1217519 0.108996,0.076668 C 20.454878,8.52 20.522257,8.412997 20.569481,8.3112094 l 0.08584,-0.1850674 0.01235,0.3495723 c 0.02245,0.6325817 -0.102229,1.1305834 -0.387284,1.5469587 -0.09918,0.144864 -0.180325,0.280297 -0.180325,0.300963 0,0.101838 0.277159,0.337109 0.839899,0.712964 1.743271,1.164335 3.454391,2.470712 4.582095,3.498257 1.373728,1.251718 2.392021,2.540548 3.045341,3.854409 0.829615,1.668409 1.034361,3.438606 0.599232,5.180867 -0.224981,0.900826 -0.707211,1.8707 -1.328579,2.672079 -1.41837,1.829266 -3.65287,3.228237 -6.433649,4.027964 -0.402273,0.11569 -0.823987,0.246838 -0.937141,0.29144 -0.225427,0.08886 -0.427791,0.102934 -0.590491,0.04107 -0.08979,-0.03414 -0.114958,-0.02523 -0.171192,0.06059 -0.0713,0.108808 -0.06089,0.27914 0.04899,0.801956 0.05222,0.248424 0.07964,0.781396 0.04022,0.781396 -0.0096,0 -0.07291,-0.05552 -0.140779,-0.123378 -0.149993,-0.149992 -0.2348,-0.155116 -0.358482,-0.02167 -0.08359,0.0902 -0.108669,0.0967 -0.221488,0.05737 -0.09639,-0.0336 -0.142454,-0.03171 -0.190105,0.0078 -0.03458,0.0287 -0.173344,0.05683 -0.308347,0.0625 -0.233927,0.0098 -0.248376,0.0047 -0.307447,-0.109565 -0.07381,-0.142733 -0.125898,-0.149444 -0.250598,-0.03229 l -0.09322,0.08757 -0.134872,-0.113483 -0.134872,-0.113484 -0.07794,0.104396 -0.07794,0.104397 -0.09356,-0.10877 c -0.08775,-0.102015 -0.102417,-0.105569 -0.236236,-0.05717 -0.16349,0.05912 -0.260128,0.03447 -0.322612,-0.08228 -0.0424,-0.07921 -0.04704,-0.07836 -0.159684,0.02957 -0.114946,0.110131 -0.116446,0.11037 -0.161769,0.02567 -0.02516,-0.04701 -0.08355,-0.105707 -0.129755,-0.130439 -0.07167,-0.03835 -0.103968,-0.0238 -0.219901,0.09913 l -0.135892,0.144088 -0.0456,-0.100073 c -0.02508,-0.05504 -0.06316,-0.100074 -0.08462,-0.100074 -0.0532,0 -0.186851,0.175049 -0.249926,0.327327 -0.07069,0.170671 -0.124071,0.157083 -0.124071,-0.03158 z m -0.483506,-8.234449 0.01059,-2.921315 0.902919,0.885571 c 0.496605,0.487062 0.913172,0.88557 0.925705,0.88557 0.01248,0 0.411099,-0.388641 0.885703,-0.863649 0.474603,-0.475007 0.872334,-0.863653 0.883846,-0.863654 0.01147,-3e-6 0.02094,1.300097 0.02094,2.889111 v 2.889118 l 2.498415,0.01059 2.498413,0.01059 v -5.51059 -5.510589 l -2.47785,-0.01097 -2.477853,-0.01097 -0.913139,0.925337 -0.91314,0.925339 -0.918608,-0.916356 -0.918609,-0.916355 -2.424808,9.33e-4 -2.424807,9.33e-4 -0.01046,5.51129 -0.01046,5.511293 h 2.426319 2.426317 z"
       id="path1"
       sodipodi:nodetypes="ssscsssscccsssccssssssssssssscssssssssssssscscsscscssscssssssssssssssssssssscccccssssssscsssssccssssscccccccccccccccccc" /></g></svg>
