<svg id="Layer_1" data-name="Layer 1" xmlns="http://www.w3.org/2000/svg" viewBox="0 0 250 294.61"><defs><style>.cls-1{fill:#efceff;}</style></defs><title>Logo-small</title><path class="cls-1" d="M358.68,217.6C358.1,216.19,335,185.29,330,186c-14,2-36.84,35-38,36-12.32,10.4-92,58.64-92,116a125,125,0,0,0,91.32,120.4c-.07.54,1.78,8.9,5,11.74,2.35,2,5.43-1.67,9,.34,2.15,1.2,4.48,8.3,7,9.2,3.89,1.41,8.16-3.68,12.63-3.68,3.53,0,6.94,5.43,10.13,4.49,3.59-1.05,6.92-8.56,9.87-10.24,3.28-1.86,6.11,2.06,8.32.16,3.46-3,5.44-11.46,5.36-12A125,125,0,0,0,450,338C450,280.64,363,228,358.68,217.6ZM411,409H360V340l-33,28-33-28v69H243V286h51l33,28,33-28h51Z" transform="translate(-200 -185.99)"/></svg>